<svg xmlns="http://www.w3.org/2000/svg" viewBox="0 0 900 480" font-family="'Segoe UI', system-ui, -apple-system, sans-serif">
  <defs>
    <linearGradient id="bgR" x1="0" y1="0" x2="0" y2="1">
      <stop offset="0%" stop-color="#0f1117"/>
      <stop offset="100%" stop-color="#1a1d2e"/>
    </linearGradient>
    <filter id="shadowR">
      <feDropShadow dx="0" dy="2" stdDeviation="3" flood-color="#000" flood-opacity="0.4"/>
    </filter>
    <marker id="arrowR" viewBox="0 0 10 7" refX="10" refY="3.5" markerWidth="7" markerHeight="5" orient="auto">
      <polygon points="0 0, 10 3.5, 0 7" fill="#4A90D9" opacity="0.7"/>
    </marker>
  </defs>

  <rect width="900" height="480" rx="12" fill="url(#bgR)"/>

  <!-- Title -->
  <text x="450" y="36" text-anchor="middle" fill="#c0caf5" font-size="18" font-weight="700">Task Routing</text>
  <text x="450" y="54" text-anchor="middle" fill="#565f89" font-size="11">How user requests map to SDD workflows</text>

  <!-- === USER REQUEST column === -->
  <text x="115" y="82" text-anchor="middle" fill="#7aa2f7" font-size="11" font-weight="600" letter-spacing="1">USER REQUEST</text>

  <g filter="url(#shadowR)">
    <rect x="30" y="96" width="170" height="32" rx="6" fill="#1e2030" stroke="#7aa2f7" stroke-width="1.2"/>
    <text x="115" y="117" text-anchor="middle" fill="#c0caf5" font-size="11">New feature</text>
  </g>
  <g filter="url(#shadowR)">
    <rect x="30" y="136" width="170" height="32" rx="6" fill="#1e2030" stroke="#f7768e" stroke-width="1.2"/>
    <text x="115" y="157" text-anchor="middle" fill="#c0caf5" font-size="11">Bug fix</text>
  </g>
  <g filter="url(#shadowR)">
    <rect x="30" y="176" width="170" height="32" rx="6" fill="#1e2030" stroke="#e0af68" stroke-width="1.2"/>
    <text x="115" y="197" text-anchor="middle" fill="#c0caf5" font-size="11">Refactoring</text>
  </g>
  <g filter="url(#shadowR)">
    <rect x="30" y="216" width="170" height="32" rx="6" fill="#1e2030" stroke="#bb9af7" stroke-width="1.2"/>
    <text x="115" y="237" text-anchor="middle" fill="#c0caf5" font-size="11">Migration</text>
  </g>
  <g filter="url(#shadowR)">
    <rect x="30" y="256" width="170" height="32" rx="6" fill="#1e2030" stroke="#9ece6a" stroke-width="1.2"/>
    <text x="115" y="277" text-anchor="middle" fill="#c0caf5" font-size="11">Documentation</text>
  </g>
  <g filter="url(#shadowR)">
    <rect x="30" y="296" width="170" height="32" rx="6" fill="#1e2030" stroke="#7dcfff" stroke-width="1.2"/>
    <text x="115" y="317" text-anchor="middle" fill="#c0caf5" font-size="11">Infrastructure</text>
  </g>
  <g filter="url(#shadowR)">
    <rect x="30" y="336" width="170" height="32" rx="6" fill="#1e2030" stroke="#ff9e64" stroke-width="1.2"/>
    <text x="115" y="357" text-anchor="middle" fill="#c0caf5" font-size="11">Architecture decision</text>
  </g>
  <g filter="url(#shadowR)">
    <rect x="30" y="376" width="170" height="32" rx="6" fill="#1e2030" stroke="#565f89" stroke-width="1.2"/>
    <text x="115" y="397" text-anchor="middle" fill="#c0caf5" font-size="11">Git operations</text>
  </g>

  <!-- === COMMAND column === -->
  <text x="340" y="82" text-anchor="middle" fill="#9ece6a" font-size="11" font-weight="600" letter-spacing="1">COMMAND</text>

  <g filter="url(#shadowR)">
    <rect x="260" y="96" width="160" height="32" rx="6" fill="#1e2030" stroke="#9ece6a" stroke-width="1.2"/>
    <text x="340" y="117" text-anchor="middle" fill="#9ece6a" font-size="11" font-weight="500">/new-change</text>
  </g>
  <g filter="url(#shadowR)">
    <rect x="260" y="136" width="160" height="32" rx="6" fill="#1e2030" stroke="#9ece6a" stroke-width="1.2"/>
    <text x="340" y="153" text-anchor="middle" fill="#9ece6a" font-size="10" font-weight="500">/new-change</text>
    <text x="340" y="164" text-anchor="middle" fill="#565f89" font-size="8">FOCUS: INVESTIGATION</text>
  </g>
  <g filter="url(#shadowR)">
    <rect x="260" y="176" width="160" height="32" rx="6" fill="#1e2030" stroke="#9ece6a" stroke-width="1.2"/>
    <text x="340" y="193" text-anchor="middle" fill="#9ece6a" font-size="10" font-weight="500">/new-change</text>
    <text x="340" y="204" text-anchor="middle" fill="#565f89" font-size="8">TASK-TYPE: REFACTOR</text>
  </g>
  <g filter="url(#shadowR)">
    <rect x="260" y="216" width="160" height="32" rx="6" fill="#1e2030" stroke="#bb9af7" stroke-width="1.2"/>
    <text x="340" y="233" text-anchor="middle" fill="#bb9af7" font-size="10" font-weight="500">/new-change</text>
    <text x="340" y="244" text-anchor="middle" fill="#565f89" font-size="8">FOCUS: MIGRATION</text>
  </g>
  <g filter="url(#shadowR)">
    <rect x="260" y="256" width="160" height="32" rx="6" fill="#1e2030" stroke="#9ece6a" stroke-width="1.2"/>
    <text x="340" y="273" text-anchor="middle" fill="#9ece6a" font-size="10" font-weight="500">/new-change</text>
    <text x="340" y="284" text-anchor="middle" fill="#565f89" font-size="8">TASK-TYPE: DOCS</text>
  </g>
  <g filter="url(#shadowR)">
    <rect x="260" y="296" width="160" height="32" rx="6" fill="#1e2030" stroke="#9ece6a" stroke-width="1.2"/>
    <text x="340" y="313" text-anchor="middle" fill="#9ece6a" font-size="10" font-weight="500">/new-change</text>
    <text x="340" y="324" text-anchor="middle" fill="#565f89" font-size="8">TASK-TYPE: INFRA</text>
  </g>
  <g filter="url(#shadowR)">
    <rect x="260" y="336" width="160" height="32" rx="6" fill="#1e2030" stroke="#ff9e64" stroke-width="1.2"/>
    <text x="340" y="357" text-anchor="middle" fill="#ff9e64" font-size="11" font-weight="500">/debate</text>
  </g>
  <g filter="url(#shadowR)">
    <rect x="260" y="376" width="160" height="32" rx="6" fill="#1e2030" stroke="#565f89" stroke-width="1.2"/>
    <text x="340" y="397" text-anchor="middle" fill="#c0caf5" font-size="11" font-weight="500">open-pr / file-issue</text>
  </g>

  <!-- Arrows: request → command -->
  <line x1="200" y1="112" x2="258" y2="112" stroke="#4A90D9" stroke-width="1.2" marker-end="url(#arrowR)" opacity="0.5"/>
  <line x1="200" y1="152" x2="258" y2="152" stroke="#4A90D9" stroke-width="1.2" marker-end="url(#arrowR)" opacity="0.5"/>
  <line x1="200" y1="192" x2="258" y2="192" stroke="#4A90D9" stroke-width="1.2" marker-end="url(#arrowR)" opacity="0.5"/>
  <line x1="200" y1="232" x2="258" y2="232" stroke="#4A90D9" stroke-width="1.2" marker-end="url(#arrowR)" opacity="0.5"/>
  <line x1="200" y1="272" x2="258" y2="272" stroke="#4A90D9" stroke-width="1.2" marker-end="url(#arrowR)" opacity="0.5"/>
  <line x1="200" y1="312" x2="258" y2="312" stroke="#4A90D9" stroke-width="1.2" marker-end="url(#arrowR)" opacity="0.5"/>
  <line x1="200" y1="352" x2="258" y2="352" stroke="#4A90D9" stroke-width="1.2" marker-end="url(#arrowR)" opacity="0.5"/>
  <line x1="200" y1="392" x2="258" y2="392" stroke="#4A90D9" stroke-width="1.2" marker-end="url(#arrowR)" opacity="0.5"/>

  <!-- === PIPELINE column === -->
  <text x="640" y="82" text-anchor="middle" fill="#e0af68" font-size="11" font-weight="600" letter-spacing="1">PIPELINE</text>

  <!-- Standard pipeline -->
  <g filter="url(#shadowR)">
    <rect x="460" y="96" width="360" height="32" rx="6" fill="#1e2030" stroke="#7aa2f7" stroke-width="1"/>
    <text x="640" y="117" text-anchor="middle" fill="#c0caf5" font-size="10">/fast-forward &#8594; /implement &#8594; /validate</text>
  </g>
  <!-- Bug fix pipeline -->
  <g filter="url(#shadowR)">
    <rect x="460" y="136" width="360" height="32" rx="6" fill="#1e2030" stroke="#f7768e" stroke-width="1"/>
    <text x="640" y="157" text-anchor="middle" fill="#c0caf5" font-size="10">/fast-forward &#8594; /implement &#8594; /validate</text>
  </g>
  <!-- Refactor pipeline -->
  <g filter="url(#shadowR)">
    <rect x="460" y="176" width="360" height="32" rx="6" fill="#1e2030" stroke="#e0af68" stroke-width="1"/>
    <text x="640" y="197" text-anchor="middle" fill="#c0caf5" font-size="10">/fast-forward &#8594; /implement &#8594; /validate</text>
  </g>
  <!-- Migration (full) -->
  <g filter="url(#shadowR)">
    <rect x="460" y="216" width="360" height="32" rx="6" fill="#1e2030" stroke="#bb9af7" stroke-width="1"/>
    <text x="640" y="237" text-anchor="middle" fill="#bb9af7" font-size="10">full pipeline (all 9 phases)</text>
  </g>
  <!-- Docs -->
  <g filter="url(#shadowR)">
    <rect x="460" y="256" width="360" height="32" rx="6" fill="#1e2030" stroke="#9ece6a" stroke-width="1"/>
    <text x="640" y="277" text-anchor="middle" fill="#c0caf5" font-size="10">/implement (direct)</text>
  </g>
  <!-- Infra -->
  <g filter="url(#shadowR)">
    <rect x="460" y="296" width="360" height="32" rx="6" fill="#1e2030" stroke="#7dcfff" stroke-width="1"/>
    <text x="640" y="317" text-anchor="middle" fill="#c0caf5" font-size="10">/fast-forward &#8594; /implement</text>
  </g>
  <!-- Debate -->
  <g filter="url(#shadowR)">
    <rect x="460" y="336" width="360" height="32" rx="6" fill="#1e2030" stroke="#ff9e64" stroke-width="1"/>
    <text x="640" y="357" text-anchor="middle" fill="#c0caf5" font-size="10">adversarial @investigate agents &#8594; synthesis</text>
  </g>
  <!-- Git ops -->
  <g filter="url(#shadowR)">
    <rect x="460" y="376" width="360" height="32" rx="6" fill="#1e2030" stroke="#565f89" stroke-width="1"/>
    <text x="640" y="397" text-anchor="middle" fill="#c0caf5" font-size="10">direct skill execution (no SDD pipeline)</text>
  </g>

  <!-- Arrows: command → pipeline -->
  <line x1="420" y1="112" x2="458" y2="112" stroke="#4A90D9" stroke-width="1.2" marker-end="url(#arrowR)" opacity="0.5"/>
  <line x1="420" y1="152" x2="458" y2="152" stroke="#4A90D9" stroke-width="1.2" marker-end="url(#arrowR)" opacity="0.5"/>
  <line x1="420" y1="192" x2="458" y2="192" stroke="#4A90D9" stroke-width="1.2" marker-end="url(#arrowR)" opacity="0.5"/>
  <line x1="420" y1="232" x2="458" y2="232" stroke="#4A90D9" stroke-width="1.2" marker-end="url(#arrowR)" opacity="0.5"/>
  <line x1="420" y1="272" x2="458" y2="272" stroke="#4A90D9" stroke-width="1.2" marker-end="url(#arrowR)" opacity="0.5"/>
  <line x1="420" y1="312" x2="458" y2="312" stroke="#4A90D9" stroke-width="1.2" marker-end="url(#arrowR)" opacity="0.5"/>
  <line x1="420" y1="352" x2="458" y2="352" stroke="#4A90D9" stroke-width="1.2" marker-end="url(#arrowR)" opacity="0.5"/>
  <line x1="420" y1="392" x2="458" y2="392" stroke="#4A90D9" stroke-width="1.2" marker-end="url(#arrowR)" opacity="0.5"/>

  <!-- Legend -->
  <g transform="translate(280,435)">
    <rect x="0" y="0" width="340" height="32" rx="6" fill="#1e2030" opacity="0.6"/>
    <circle cx="20" cy="16" r="5" fill="#9ece6a"/>
    <text x="32" y="20" fill="#565f89" font-size="9">SDD pipeline</text>
    <circle cx="120" cy="16" r="5" fill="#bb9af7"/>
    <text x="132" y="20" fill="#565f89" font-size="9">Full pipeline</text>
    <circle cx="210" cy="16" r="5" fill="#ff9e64"/>
    <text x="222" y="20" fill="#565f89" font-size="9">Adversarial</text>
    <circle cx="290" cy="16" r="5" fill="#565f89"/>
    <text x="302" y="20" fill="#565f89" font-size="9">Direct</text>
  </g>
</svg>
