<svg xmlns="http://www.w3.org/2000/svg" viewBox="0 0 880 420" font-family="'Segoe UI',system-ui,sans-serif">
  <rect width="880" height="420" rx="12" fill="#0f1117"/>

  <text x="440" y="32" text-anchor="middle" fill="#c0caf5" font-size="17" font-weight="700">Task Routing</text>
  <text x="440" y="50" text-anchor="middle" fill="#565f89" font-size="10">How user requests map to SDD workflows</text>

  <!-- Column headers -->
  <text x="100" y="74" text-anchor="middle" fill="#7aa2f7" font-size="10" font-weight="600" letter-spacing="0.5">USER REQUEST</text>
  <text x="320" y="74" text-anchor="middle" fill="#9ece6a" font-size="10" font-weight="600" letter-spacing="0.5">COMMAND</text>
  <text x="640" y="74" text-anchor="middle" fill="#e0af68" font-size="10" font-weight="600" letter-spacing="0.5">PIPELINE</text>

  <!-- Row 1: New feature -->
  <rect x="15" y="86" width="170" height="28" rx="5" fill="#1e2030" stroke="#7aa2f7" stroke-width="1"/>
  <text x="100" y="105" text-anchor="middle" fill="#c0caf5" font-size="10">New feature</text>
  <rect x="230" y="86" width="180" height="28" rx="5" fill="#1e2030" stroke="#9ece6a" stroke-width="1"/>
  <text x="320" y="105" text-anchor="middle" fill="#9ece6a" font-size="10">/new-change</text>
  <rect x="450" y="86" width="390" height="28" rx="5" fill="#1e2030" stroke="#7aa2f7" stroke-width="1"/>
  <text x="645" y="105" text-anchor="middle" fill="#c0caf5" font-size="9">/fast-forward → /implement → /validate</text>

  <!-- Row 2: Bug fix -->
  <rect x="15" y="122" width="170" height="28" rx="5" fill="#1e2030" stroke="#f7768e" stroke-width="1"/>
  <text x="100" y="141" text-anchor="middle" fill="#c0caf5" font-size="10">Bug fix</text>
  <rect x="230" y="122" width="180" height="28" rx="5" fill="#1e2030" stroke="#9ece6a" stroke-width="1"/>
  <text x="320" y="137" text-anchor="middle" fill="#9ece6a" font-size="9">/new-change</text>
  <text x="320" y="148" text-anchor="middle" fill="#565f89" font-size="7">FOCUS: INVESTIGATION</text>
  <rect x="450" y="122" width="390" height="28" rx="5" fill="#1e2030" stroke="#f7768e" stroke-width="1"/>
  <text x="645" y="141" text-anchor="middle" fill="#c0caf5" font-size="9">/fast-forward → /implement → /validate</text>

  <!-- Row 3: Refactoring -->
  <rect x="15" y="158" width="170" height="28" rx="5" fill="#1e2030" stroke="#e0af68" stroke-width="1"/>
  <text x="100" y="177" text-anchor="middle" fill="#c0caf5" font-size="10">Refactoring</text>
  <rect x="230" y="158" width="180" height="28" rx="5" fill="#1e2030" stroke="#9ece6a" stroke-width="1"/>
  <text x="320" y="173" text-anchor="middle" fill="#9ece6a" font-size="9">/new-change</text>
  <text x="320" y="184" text-anchor="middle" fill="#565f89" font-size="7">TASK-TYPE: REFACTOR</text>
  <rect x="450" y="158" width="390" height="28" rx="5" fill="#1e2030" stroke="#e0af68" stroke-width="1"/>
  <text x="645" y="177" text-anchor="middle" fill="#c0caf5" font-size="9">/fast-forward → /implement → /validate</text>

  <!-- Row 4: Migration -->
  <rect x="15" y="194" width="170" height="28" rx="5" fill="#1e2030" stroke="#bb9af7" stroke-width="1"/>
  <text x="100" y="213" text-anchor="middle" fill="#c0caf5" font-size="10">Migration</text>
  <rect x="230" y="194" width="180" height="28" rx="5" fill="#1e2030" stroke="#bb9af7" stroke-width="1"/>
  <text x="320" y="209" text-anchor="middle" fill="#bb9af7" font-size="9">/new-change</text>
  <text x="320" y="220" text-anchor="middle" fill="#565f89" font-size="7">FOCUS: MIGRATION</text>
  <rect x="450" y="194" width="390" height="28" rx="5" fill="#1e2030" stroke="#bb9af7" stroke-width="1"/>
  <text x="645" y="213" text-anchor="middle" fill="#bb9af7" font-size="9">full pipeline (all 9 phases)</text>

  <!-- Row 5: Documentation -->
  <rect x="15" y="230" width="170" height="28" rx="5" fill="#1e2030" stroke="#9ece6a" stroke-width="1"/>
  <text x="100" y="249" text-anchor="middle" fill="#c0caf5" font-size="10">Documentation</text>
  <rect x="230" y="230" width="180" height="28" rx="5" fill="#1e2030" stroke="#9ece6a" stroke-width="1"/>
  <text x="320" y="245" text-anchor="middle" fill="#9ece6a" font-size="9">/new-change</text>
  <text x="320" y="256" text-anchor="middle" fill="#565f89" font-size="7">TASK-TYPE: DOCS</text>
  <rect x="450" y="230" width="390" height="28" rx="5" fill="#1e2030" stroke="#9ece6a" stroke-width="1"/>
  <text x="645" y="249" text-anchor="middle" fill="#c0caf5" font-size="9">/implement (direct)</text>

  <!-- Row 6: Infrastructure -->
  <rect x="15" y="266" width="170" height="28" rx="5" fill="#1e2030" stroke="#7dcfff" stroke-width="1"/>
  <text x="100" y="285" text-anchor="middle" fill="#c0caf5" font-size="10">Infrastructure</text>
  <rect x="230" y="266" width="180" height="28" rx="5" fill="#1e2030" stroke="#9ece6a" stroke-width="1"/>
  <text x="320" y="281" text-anchor="middle" fill="#9ece6a" font-size="9">/new-change</text>
  <text x="320" y="292" text-anchor="middle" fill="#565f89" font-size="7">TASK-TYPE: INFRA</text>
  <rect x="450" y="266" width="390" height="28" rx="5" fill="#1e2030" stroke="#7dcfff" stroke-width="1"/>
  <text x="645" y="285" text-anchor="middle" fill="#c0caf5" font-size="9">/fast-forward → /implement</text>

  <!-- Row 7: Architecture decision -->
  <rect x="15" y="302" width="170" height="28" rx="5" fill="#1e2030" stroke="#ff9e64" stroke-width="1"/>
  <text x="100" y="321" text-anchor="middle" fill="#c0caf5" font-size="10">Architecture decision</text>
  <rect x="230" y="302" width="180" height="28" rx="5" fill="#1e2030" stroke="#ff9e64" stroke-width="1"/>
  <text x="320" y="321" text-anchor="middle" fill="#ff9e64" font-size="10">/debate</text>
  <rect x="450" y="302" width="390" height="28" rx="5" fill="#1e2030" stroke="#ff9e64" stroke-width="1"/>
  <text x="645" y="321" text-anchor="middle" fill="#c0caf5" font-size="9">adversarial @investigate agents → synthesis</text>

  <!-- Row 8: Git operations -->
  <rect x="15" y="338" width="170" height="28" rx="5" fill="#1e2030" stroke="#565f89" stroke-width="1"/>
  <text x="100" y="357" text-anchor="middle" fill="#c0caf5" font-size="10">Git operations</text>
  <rect x="230" y="338" width="180" height="28" rx="5" fill="#1e2030" stroke="#565f89" stroke-width="1"/>
  <text x="320" y="357" text-anchor="middle" fill="#c0caf5" font-size="10">open-pr / file-issue</text>
  <rect x="450" y="338" width="390" height="28" rx="5" fill="#1e2030" stroke="#565f89" stroke-width="1"/>
  <text x="645" y="357" text-anchor="middle" fill="#c0caf5" font-size="9">direct skill execution (no SDD pipeline)</text>

  <!-- Arrows col1→col2 -->
  <line x1="185" y1="100" x2="228" y2="100" stroke="#4A90D9" stroke-width="1"/>
  <polygon points="226,97 232,100 226,103" fill="#4A90D9"/>
  <line x1="185" y1="136" x2="228" y2="136" stroke="#4A90D9" stroke-width="1"/>
  <polygon points="226,133 232,136 226,139" fill="#4A90D9"/>
  <line x1="185" y1="172" x2="228" y2="172" stroke="#4A90D9" stroke-width="1"/>
  <polygon points="226,169 232,172 226,175" fill="#4A90D9"/>
  <line x1="185" y1="208" x2="228" y2="208" stroke="#4A90D9" stroke-width="1"/>
  <polygon points="226,205 232,208 226,211" fill="#4A90D9"/>
  <line x1="185" y1="244" x2="228" y2="244" stroke="#4A90D9" stroke-width="1"/>
  <polygon points="226,241 232,244 226,247" fill="#4A90D9"/>
  <line x1="185" y1="280" x2="228" y2="280" stroke="#4A90D9" stroke-width="1"/>
  <polygon points="226,277 232,280 226,283" fill="#4A90D9"/>
  <line x1="185" y1="316" x2="228" y2="316" stroke="#4A90D9" stroke-width="1"/>
  <polygon points="226,313 232,316 226,319" fill="#4A90D9"/>
  <line x1="185" y1="352" x2="228" y2="352" stroke="#4A90D9" stroke-width="1"/>
  <polygon points="226,349 232,352 226,355" fill="#4A90D9"/>

  <!-- Arrows col2→col3 -->
  <line x1="410" y1="100" x2="448" y2="100" stroke="#4A90D9" stroke-width="1"/>
  <polygon points="446,97 452,100 446,103" fill="#4A90D9"/>
  <line x1="410" y1="136" x2="448" y2="136" stroke="#4A90D9" stroke-width="1"/>
  <polygon points="446,133 452,136 446,139" fill="#4A90D9"/>
  <line x1="410" y1="172" x2="448" y2="172" stroke="#4A90D9" stroke-width="1"/>
  <polygon points="446,169 452,172 446,175" fill="#4A90D9"/>
  <line x1="410" y1="208" x2="448" y2="208" stroke="#4A90D9" stroke-width="1"/>
  <polygon points="446,205 452,208 446,211" fill="#4A90D9"/>
  <line x1="410" y1="244" x2="448" y2="244" stroke="#4A90D9" stroke-width="1"/>
  <polygon points="446,241 452,244 446,247" fill="#4A90D9"/>
  <line x1="410" y1="280" x2="448" y2="280" stroke="#4A90D9" stroke-width="1"/>
  <polygon points="446,277 452,280 446,283" fill="#4A90D9"/>
  <line x1="410" y1="316" x2="448" y2="316" stroke="#4A90D9" stroke-width="1"/>
  <polygon points="446,313 452,316 446,319" fill="#4A90D9"/>
  <line x1="410" y1="352" x2="448" y2="352" stroke="#4A90D9" stroke-width="1"/>
  <polygon points="446,349 452,352 446,355" fill="#4A90D9"/>

  <!-- Legend -->
  <rect x="240" y="385" width="400" height="24" rx="5" fill="#1e2030" opacity="0.5"/>
  <circle cx="265" cy="397" r="4" fill="#9ece6a"/>
  <text x="275" y="401" fill="#565f89" font-size="8">SDD</text>
  <circle cx="315" cy="397" r="4" fill="#bb9af7"/>
  <text x="325" y="401" fill="#565f89" font-size="8">Full pipeline</text>
  <circle cx="395" cy="397" r="4" fill="#ff9e64"/>
  <text x="405" y="401" fill="#565f89" font-size="8">Adversarial</text>
  <circle cx="470" cy="397" r="4" fill="#565f89"/>
  <text x="480" y="401" fill="#565f89" font-size="8">Direct</text>
  <circle cx="530" cy="397" r="4" fill="#f7768e"/>
  <text x="540" y="401" fill="#565f89" font-size="8">Investigation</text>
</svg>
